{
    "asset" : {
        "generator" : "Khronos glTF Blender I/O v1.5.17",
        "version" : "2.0"
    },
    "scene" : 0,
    "scenes" : [
        {
            "name" : "Scene",
            "nodes" : [
                0
            ]
        }
    ],
    "nodes" : [
        {
            "mesh" : 0,
            "name" : "Rectangle360",
            "rotation" : [
                0,
                -0.7071067094802856,
                0.7071068286895752,
                1.3767875373105198e-07
            ],
            "scale" : [
                0.009999999776482582,
                0.009999999776482582,
                0.010530069470405579
            ]
        }
    ],
    "materials" : [
        {
            "alphaMode" : "BLEND",
            "doubleSided" : true,
            "name" : "Material #2143566324",
            "pbrMetallicRoughness" : {
                "baseColorTexture" : {
                    "index" : 0
                },
                "metallicFactor" : 0,
                "roughnessFactor" : 0.5527864098548889
            }
        },
        {
            "doubleSided" : true,
            "name" : "Material #2142160285",
            "pbrMetallicRoughness" : {
                "baseColorFactor" : [
                    0.007843137718737125,
                    0.007843137718737125,
                    0.007843137718737125,
                    1
                ],
                "metallicFactor" : 0,
                "roughnessFactor" : 0.5527864098548889
            }
        }
    ],
    "meshes" : [
        {
            "name" : "\u7db2\u683c",
            "primitives" : [
                {
                    "attributes" : {
                        "POSITION" : 0,
                        "NORMAL" : 1,
                        "TEXCOORD_0" : 2
                    },
                    "indices" : 3,
                    "material" : 0
                },
                {
                    "attributes" : {
                        "POSITION" : 4,
                        "NORMAL" : 5,
                        "TEXCOORD_0" : 6
                    },
                    "indices" : 7,
                    "material" : 1
                }
            ]
        }
    ],
    "textures" : [
        {
            "sampler" : 0,
            "source" : 0
        }
    ],
    "images" : [
        {
            "bufferView" : 4,
            "mimeType" : "image/png",
            "name" : "0516-\u624b\u8209\u724c_13"
        }
    ],
    "accessors" : [
        {
            "bufferView" : 0,
            "componentType" : 5126,
            "count" : 265,
            "max" : [
                75,
                5,
                125
            ],
            "min" : [
                -75,
                0,
                -125
            ],
            "type" : "VEC3"
        },
        {
            "bufferView" : 1,
            "componentType" : 5126,
            "count" : 265,
            "type" : "VEC3"
        },
        {
            "bufferView" : 2,
            "componentType" : 5126,
            "count" : 265,
            "type" : "VEC2"
        },
        {
            "bufferView" : 3,
            "componentType" : 5123,
            "count" : 516,
            "type" : "SCALAR"
        },
        {
            "bufferView" : 5,
            "componentType" : 5126,
            "count" : 176,
            "max" : [
                75,
                5,
                125
            ],
            "min" : [
                -75,
                0,
                -125
            ],
            "type" : "VEC3"
        },
        {
            "bufferView" : 6,
            "componentType" : 5126,
            "count" : 176,
            "type" : "VEC3"
        },
        {
            "bufferView" : 7,
            "componentType" : 5126,
            "count" : 176,
            "type" : "VEC2"
        },
        {
            "bufferView" : 8,
            "componentType" : 5123,
            "count" : 528,
            "type" : "SCALAR"
        }
    ],
    "bufferViews" : [
        {
            "buffer" : 0,
            "byteLength" : 3180,
            "byteOffset" : 0
        },
        {
            "buffer" : 0,
            "byteLength" : 3180,
            "byteOffset" : 3180
        },
        {
            "buffer" : 0,
            "byteLength" : 2120,
            "byteOffset" : 6360
        },
        {
            "buffer" : 0,
            "byteLength" : 1032,
            "byteOffset" : 8480
        },
        {
            "buffer" : 0,
            "byteLength" : 108691,
            "byteOffset" : 9512
        },
        {
            "buffer" : 0,
            "byteLength" : 2112,
            "byteOffset" : 118204
        },
        {
            "buffer" : 0,
            "byteLength" : 2112,
            "byteOffset" : 120316
        },
        {
            "buffer" : 0,
            "byteLength" : 1408,
            "byteOffset" : 122428
        },
        {
            "buffer" : 0,
            "byteLength" : 1056,
            "byteOffset" : 123836
        }
    ],
    "samplers" : [
        {
            "magFilter" : 9729,
            "minFilter" : 9987
        }
    ],
    "buffers" : [
        {
            "byteLength" : 124892,
            "uri" : "data:application/octet-stream;base64,"
        }
    ]
}
